Coordinates
version=1
nRows=20
nColumns=34
inDegrees=yes

Units are S.I. units (second, meters, Newtons, ...)
If the header above contains a line with 'inDegrees', this indicates whether rotational values are in degrees (yes) or radians (no).

endheader
time	pelvis_tilt	pelvis_list	pelvis_rotation	pelvis_tx	pelvis_ty	pelvis_tz	hip_flexion_r	hip_adduction_r	hip_rotation_r	knee_angle_r	ankle_angle_r	subtalar_angle_r	mtp_angle_r	hip_flexion_l	hip_adduction_l	hip_rotation_l	knee_angle_l	ankle_angle_l	subtalar_angle_l	mtp_angle_l	lumbar_extension	lumbar_bending	lumbar_rotation	arm_flex_r	arm_add_r	arm_rot_r	elbow_flex_r	pro_sup_r	arm_flex_l	arm_add_l	arm_rot_l	elbow_flex_l	pro_sup_l
      3.95000000	     -2.49390252	      0.72277333	      0.84735770	      0.96509153	      0.79103632	     -0.11017568	     36.47289279	      0.63168379	     12.32320890	     67.53365564	     26.07455581	    -20.88701743	      0.00000000	     33.06122339	     -0.31825105	      7.59303026	     64.53990361	     31.45289751	     -1.81078979	      0.00000000	    -27.63734444	     -2.51577471	     -8.61564947	     21.80915968	     -4.88197617	     36.32357318	     76.72327565	    101.01831642	     27.86053159	      4.53511833	     44.57848503	    106.55413371	     57.99380792
      3.96666670	     -2.88311444	      0.80738169	      0.76351829	      0.97059570	      0.78782886	     -0.11485120	     36.62404034	      0.31524930	     12.58242637	     66.51152040	     24.91351977	    -21.60600838	      0.00000000	     33.39794292	      0.35811885	      7.96972144	     63.77663637	     30.80908380	     -2.86829147	      0.00000000	    -28.61034877	     -2.20694147	     -8.60920754	     22.58431217	     -4.29793466	     35.39955110	     73.83953852	    101.01557216	     28.82559335	      3.91653465	     46.11893181	    103.90954738	     58.36463457
      3.98333330	     -3.68738376	      0.81597966	      0.70415669	      0.96655360	      0.78884808	     -0.11452685	     36.71552572	      0.04832427	     12.91404884	     64.75854431	     23.98939382	    -21.86606166	      0.00000000	     34.18810335	      0.58744647	      7.96837646	     63.13148234	     30.05691917	     -3.22528400	      0.00000000	    -29.19608680	     -2.03976730	     -8.51047885	     22.56015444	     -3.66446677	     34.10888042	     71.33870427	    100.88817511	     29.48299132	      3.02515656	     47.60115433	    101.36600899	     58.69997861
      4.00000000	     -4.12385910	      0.77692139	      0.61811553	      0.96359439	      0.79624566	     -0.11577748	     35.98487027	     -0.29168925	     13.16168722	     62.30475523	     22.94140084	    -21.57205794	      0.00000000	     33.88339801	      0.65951677	      8.01231699	     61.31460642	     28.90704799	     -3.54169296	      0.00000000	    -29.78955953	     -1.75181343	     -8.26273166	     22.25843457	     -3.28869016	     33.20491432	     69.23563229	    100.71699471	     29.90837141	      2.02793452	     48.25586295	     98.59816992	     58.86158781
      4.01666670	     -4.79576266	      0.77823491	      0.48880968	      0.95942001	      0.80706209	     -0.11715968	     35.27654500	     -0.80648180	     13.05122157	     59.22088808	     21.37136325	    -20.88261065	      0.00000000	     33.28888696	      0.64020437	      7.94526395	     58.49823644	     27.50697330	     -3.82772848	      0.00000000	    -30.23041089	     -1.79306896	     -7.68618016	     21.98017823	     -3.28806779	     32.57154463	     67.32564311	    100.44961487	     29.81530392	      0.94893389	     48.93639503	     96.35673498	     58.97485432
      4.03333330	     -5.07461941	      0.64874506	      0.22823438	      0.96147707	      0.81494690	     -0.11778133	     33.81511922	     -1.19971066	     12.74284307	     55.69686624	     20.14112240	    -19.82456458	      0.00000000	     31.92408357	      0.33933861	      7.97185669	     55.28589493	     25.94051737	     -3.88428991	      0.00000000	    -30.34215542	     -1.74482763	     -6.95270916	     21.51267490	     -3.40941475	     32.61582755	     65.52510673	    100.15535885	     29.51880905	      0.02675611	     49.24624926	     94.48514061	     58.94694991
      4.05000000	     -5.36865542	      0.27970982	      0.01039360	      0.96084223	      0.82931769	     -0.11572163	     32.09655144	     -1.28827325	     12.18485971	     51.58473453	     18.43932697	    -18.68707133	      0.00000000	     30.30003590	     -0.28509125	      8.08168940	     51.40025127	     24.15949613	     -3.87914282	      0.00000000	    -30.22985529	     -1.69171528	     -6.24193297	     21.01965298	     -3.47075597	     32.98240237	     63.97545035	     99.81183722	     29.02776958	     -0.93115448	     49.45121210	     93.46647586	     58.83524527
      4.06666670	     -5.25105033	      0.05236470	     -0.27550332	      0.96021404	      0.84208214	     -0.11632841	     29.73022676	     -1.58819087	     11.65203820	     47.14824554	     16.62777057	    -17.41330962	      0.00000000	     28.05529648	     -0.70067406	      8.16554707	     47.40933989	     22.08054531	     -3.91715266	      0.00000000	    -30.02942654	     -1.75790615	     -5.76300202	     20.54405592	     -3.54124174	     33.51179992	     62.71970818	     99.38317266	     28.23655548	     -1.88757850	     49.77933249	     93.55983674	     58.64744012
      4.08333330	     -5.63611380	     -0.20923374	     -0.37258383	      0.95635248	      0.85090730	     -0.11760216	     28.21516490	     -1.93076567	     10.93827746	     42.95883620	     14.59817905	    -16.12323089	      0.00000000	     26.70018650	     -1.08531632	      8.30183819	     43.69891226	     20.03681223	     -4.06009741	      0.00000000	    -29.13180240	     -1.62405620	     -5.31571995	     20.18531127	     -3.98431100	     34.34059634	     62.58624415	     98.94073086	     27.46393755	     -2.60815521	     50.35942561	     95.16976185	     58.45434384
      4.10000000	     -6.48381328	     -0.33308628	     -0.97633342	      0.95220316	      0.86114813	     -0.11770745	     27.50163203	     -2.29269305	     10.41927877	     39.03234547	     12.64791568	    -14.46301778	      0.00000000	     25.82144143	     -1.44259183	      8.19203614	     40.04218648	     17.73284456	     -4.38642417	      0.00000000	    -27.79434352	     -1.68219612	     -4.76523463	     19.89926124	     -4.39603158	     35.13449703	     62.98262558	     98.56614333	     26.77707329	     -3.14151126	     50.40596113	     97.52128476	     58.27607616
      4.11666670	     -7.26012346	     -0.40915102	     -1.41112091	      0.95602194	      0.87119413	     -0.11800928	     26.19396426	     -2.77620073	      9.42712873	     34.93405100	     10.51043227	    -12.77199345	      0.00000000	     24.55338679	     -1.75881709	      8.01006760	     36.01126969	     15.49418407	     -4.56474690	      0.00000000	    -26.14838794	     -1.75734375	     -4.58542528	     19.01715360	     -4.70881330	     35.74364333	     63.66092283	     98.22886580	     25.93038603	     -3.63675541	     50.52920233	    100.18378733	     58.15389705
      4.13333330	     -8.38020705	     -0.37809877	     -1.96530144	      0.95067824	      0.88303333	     -0.11736882	     25.66525390	     -3.26727495	      8.33589692	     30.72545733	      8.07244314	    -11.12867022	      0.00000000	     23.71547561	     -1.97693429	      7.70449649	     31.77608424	     13.47741513	     -4.38570919	      0.00000000	    -24.28425704	     -1.85301493	     -4.41679839	     18.09026075	     -5.09490531	     35.99083212	     64.67780439	     97.89580908	     24.97129692	     -3.91579311	     50.34129824	    103.01554729	     58.08527570
      4.15000000	     -9.22037625	     -0.33733413	     -2.28922830	      0.95198278	      0.89480515	     -0.11701998	     24.19561035	     -3.69567601	      6.98566074	     26.42218058	      5.79492764	     -9.41861492	      0.00000000	     22.33567427	     -2.22076054	      7.55749080	     27.28506408	     11.38705882	     -3.96363945	      0.00000000	    -22.52569555	     -1.93453852	     -4.23294773	     16.96427089	     -5.34649013	     35.83799780	     65.32359646	     97.63829915	     24.67770822	     -3.89524817	     49.70222709	    104.98704349	     58.01748299
      4.16666670	    -10.15356917	     -0.30401667	     -2.66158038	      0.95195860	      0.90153332	     -0.11616016	     23.22070751	     -3.97310057	      5.78000790	     23.33958797	      4.49031657	     -7.74274699	      0.00000000	     21.30866813	     -2.53863324	      7.12059061	     23.36779314	     10.17939601	     -3.00730925	      0.00000000	    -20.68136928	     -2.05814245	     -3.91082593	     15.88561418	     -5.77205659	     35.71954045	     66.21756119	     97.46465426	     24.84428157	     -3.72445718	     49.22954811	    107.20068412	     58.01680345
      4.18333330	    -10.86319283	     -0.37840509	     -3.13432011	      0.95163613	      0.90380878	     -0.11540608	     22.13772142	     -4.00239281	      5.15561841	     21.02483444	      3.26872457	     -5.82511384	      0.00000000	     20.31697638	     -3.04943364	      6.32142533	     20.11357628	      9.47541905	     -2.39415660	      0.00000000	    -18.87814713	     -2.06012303	     -3.61594176	     14.75819171	     -6.31984817	     35.67853952	     67.27443647	     97.34696339	     24.89901995	     -3.25007021	     48.85101660	    109.55580038	     58.08175067
      4.20000000	    -11.40414893	     -0.21647726	     -3.55497847	      0.95467289	      0.90717015	     -0.11432410	     20.94242451	     -4.15657217	      5.05736999	     19.48905609	      3.33881881	     -3.16421711	      0.00000000	     19.14722236	     -3.24036383	      5.69629572	     17.10380506	      9.01255056	     -1.80013997	      0.00000000	    -17.03535068	     -2.29720535	     -3.30994248	     13.83638875	     -7.00990647	     35.95837856	     68.00544797	     97.24774083	     25.20894172	     -2.89882356	     48.73473295	    112.01831633	     58.24090749
      4.21666670	    -12.10575680	     -0.04712834	     -4.29066794	      0.94823872	      0.90707846	     -0.11177482	     20.54396435	     -4.15588427	      5.47091825	     18.70063451	      3.43716147	     -1.12272746	      0.00000000	     18.75896653	     -3.46652033	      5.02777216	     15.06922875	      8.89632634	     -1.27790383	      0.00000000	    -15.24554716	     -2.58507053	     -2.80865496	     13.49633747	     -7.64782346	     36.56225205	     68.77396272	     97.20570257	     26.06300988	     -2.39106366	     48.28384260	    114.74667677	     58.44878391
      4.23333330	    -12.63818998	      0.07852652	     -4.73834485	      0.94962756	      0.90911417	     -0.10952808	     19.84717552	     -4.18132411	      5.77617945	     17.83953250	      3.06058393	      0.26420526	      0.00000000	     18.15978053	     -3.66421000	      4.76523689	     12.86128990	      8.75911696	     -0.89716609	      0.00000000	    -13.38016290	     -2.70633685	     -2.49914643	     12.91189679	     -8.32124056	     36.84935961	     69.04915121	     97.19486975	     27.57665931	     -2.15881313	     47.24544951	    116.53158414	     58.56326845
      4.25000000	    -13.07263592	      0.28700951	     -5.40748960	      0.95012300	      0.90660061	     -0.10720367	     19.17700932	     -4.26225055	      6.36277844	     16.96545435	      3.69008792	      2.26239116	      0.00000000	     17.66481343	     -3.78824968	      4.21789469	     11.37669606	      8.93215659	     -0.28763977	      0.00000000	    -11.72085700	     -2.77893096	     -2.16334541	     12.08972498	     -8.77500214	     37.11447334	     69.89986487	     97.17512729	     29.14009019	     -1.80420264	     45.71836262	    118.92895166	     58.76563410
      4.26666670	    -13.39022911	      0.51664242	     -5.76536638	      0.95369059	      0.90675563	     -0.10583324	     18.12033367	     -4.51074359	      6.79493239	     15.55821381	      4.24898024	      4.06438493	      0.00000000	     17.11317151	     -3.82806550	      3.93480806	      9.98636771	      9.19490493	      0.20649237	      0.00000000	    -10.10933291	     -2.87868159	     -2.08429977	     10.73478981	     -9.31063804	     36.66641237	     70.65301854	     97.11763613	     30.29384571	     -1.69449893	     44.06079401	    121.09892237	     59.07384833
